<svg width="85" height="84" viewBox="0 0 85 84" fill="none" xmlns="http://www.w3.org/2000/svg">
<path d="M37.9351 5.91302C39.9539 3.03648 44.2158 3.03648 46.2346 5.91302V5.91302C47.7619 8.08928 50.7207 8.7101 53.001 7.34295V7.34295C56.0089 5.53952 59.9095 7.26274 60.5787 10.7054V10.7054C61.0855 13.3125 63.5396 15.081 66.1755 14.7567V14.7567C69.6522 14.329 72.5199 17.4867 71.7268 20.8986V20.8986C71.1259 23.4837 72.6426 26.0952 75.182 26.8668V26.8668C78.5348 27.8855 79.864 31.937 77.7482 34.7303V34.7303C76.1454 36.8463 76.461 39.8436 78.4688 41.58V41.58C81.1212 43.874 80.671 48.113 77.6001 49.8062V49.8062C75.276 51.0876 74.3406 53.9549 75.4673 56.3578V56.3578C76.9544 59.5293 74.8075 63.2146 71.3177 63.5164V63.5164C68.6729 63.7451 66.6421 65.9846 66.6904 68.6388V68.6388C66.7542 72.1426 63.2937 74.6362 59.9797 73.4968V73.4968C57.4669 72.6329 54.6991 73.8534 53.6592 76.2987V76.2987C52.2854 79.5294 48.1147 80.41 45.5444 78.0188V78.0188C43.5969 76.207 40.5728 76.207 38.6253 78.0188V78.0188C36.055 80.41 31.8843 79.5294 30.5105 76.2987V76.2987C29.4706 73.8534 26.7028 72.6329 24.19 73.4968V73.4968C20.876 74.6362 17.4155 72.1426 17.4793 68.6388V68.6388C17.5276 65.9846 15.4968 63.7451 12.852 63.5164V63.5164C9.36223 63.2146 7.21533 59.5293 8.70237 56.3578V56.3578C9.82907 53.9549 8.89372 51.0876 6.5696 49.8062V49.8062C3.49865 48.113 3.04847 43.874 5.70089 41.58V41.58C7.70867 39.8436 8.02428 36.8463 6.42151 34.7303V34.7303C4.30573 31.937 5.63486 27.8855 8.98767 26.8668V26.8668C11.5271 26.0952 13.0438 23.4837 12.4429 20.8986V20.8986C11.6498 17.4867 14.5175 14.329 17.9942 14.7567V14.7567C20.6301 15.081 23.0842 13.3125 23.591 10.7054V10.7054C24.2602 7.26274 28.1608 5.53952 31.1687 7.34295V7.34295C33.449 8.7101 36.4078 8.08928 37.9351 5.91302V5.91302Z" fill="white"/>
<mask id="mask0_20_190" style="mask-type:alpha" maskUnits="userSpaceOnUse" x="3" y="3" width="78" height="77">
<path d="M37.9351 5.91302C39.9539 3.03648 44.2158 3.03648 46.2346 5.91302V5.91302C47.7619 8.08928 50.7207 8.7101 53.001 7.34295V7.34295C56.0089 5.53952 59.9095 7.26274 60.5787 10.7054V10.7054C61.0855 13.3125 63.5396 15.081 66.1755 14.7567V14.7567C69.6522 14.329 72.5199 17.4867 71.7268 20.8986V20.8986C71.1259 23.4837 72.6426 26.0952 75.182 26.8668V26.8668C78.5348 27.8855 79.864 31.937 77.7482 34.7303V34.7303C76.1454 36.8463 76.461 39.8436 78.4688 41.58V41.58C81.1212 43.874 80.671 48.113 77.6001 49.8062V49.8062C75.276 51.0876 74.3406 53.9549 75.4673 56.3578V56.3578C76.9544 59.5293 74.8075 63.2146 71.3177 63.5164V63.5164C68.6729 63.7451 66.6421 65.9846 66.6904 68.6388V68.6388C66.7542 72.1426 63.2937 74.6362 59.9797 73.4968V73.4968C57.4669 72.6329 54.6991 73.8534 53.6592 76.2987V76.2987C52.2854 79.5294 48.1147 80.41 45.5444 78.0188V78.0188C43.5969 76.207 40.5728 76.207 38.6253 78.0188V78.0188C36.055 80.41 31.8843 79.5294 30.5105 76.2987V76.2987C29.4706 73.8534 26.7028 72.6329 24.19 73.4968V73.4968C20.876 74.6362 17.4155 72.1426 17.4793 68.6388V68.6388C17.5276 65.9846 15.4968 63.7451 12.852 63.5164V63.5164C9.36223 63.2146 7.21533 59.5293 8.70237 56.3578V56.3578C9.82907 53.9549 8.89372 51.0876 6.5696 49.8062V49.8062C3.49865 48.113 3.04847 43.874 5.70089 41.58V41.58C7.70867 39.8436 8.02428 36.8463 6.42151 34.7303V34.7303C4.30573 31.937 5.63486 27.8855 8.98767 26.8668V26.8668C11.5271 26.0952 13.0438 23.4837 12.4429 20.8986V20.8986C11.6498 17.4867 14.5175 14.329 17.9942 14.7567V14.7567C20.6301 15.081 23.0842 13.3125 23.591 10.7054V10.7054C24.2602 7.26274 28.1608 5.53952 31.1687 7.34295V7.34295C33.449 8.7101 36.4078 8.08928 37.9351 5.91302V5.91302Z" fill="#D3D3D3"/>
</mask>
<g mask="url(#mask0_20_190)">
<path d="M37.9351 14.913C39.9539 12.0365 44.2158 12.0365 46.2346 14.913V14.913C47.7619 17.0893 50.7207 17.7101 53.001 16.3429V16.3429C56.0089 14.5395 59.9095 16.2627 60.5787 19.7054V19.7054C61.0855 22.3125 63.5396 24.081 66.1755 23.7567V23.7567C69.6522 23.329 72.5199 26.4867 71.7268 29.8986V29.8986C71.1259 32.4837 72.6426 35.0952 75.182 35.8668V35.8668C78.5348 36.8855 79.864 40.937 77.7482 43.7303V43.7303C76.1454 45.8463 76.461 48.8436 78.4688 50.58V50.58C81.1212 52.874 80.671 57.113 77.6001 58.8062V58.8062C75.276 60.0876 74.3406 62.9549 75.4673 65.3578V65.3578C76.9544 68.5293 74.8075 72.2146 71.3177 72.5164V72.5164C68.6729 72.7451 66.6421 74.9846 66.6904 77.6388V77.6388C66.7542 81.1426 63.2937 83.6362 59.9797 82.4968V82.4968C57.4669 81.6329 54.6991 82.8534 53.6592 85.2987V85.2987C52.2854 88.5294 48.1147 89.41 45.5444 87.0188V87.0188C43.5969 85.207 40.5728 85.207 38.6253 87.0188V87.0188C36.055 89.41 31.8843 88.5294 30.5105 85.2987V85.2987C29.4706 82.8534 26.7028 81.6329 24.19 82.4968V82.4968C20.876 83.6362 17.4155 81.1426 17.4793 77.6388V77.6388C17.5276 74.9846 15.4968 72.7451 12.852 72.5164V72.5164C9.36223 72.2146 7.21533 68.5293 8.70237 65.3578V65.3578C9.82907 62.9549 8.89372 60.0876 6.5696 58.8062V58.8062C3.49865 57.113 3.04847 52.874 5.70089 50.58V50.58C7.70867 48.8436 8.02428 45.8463 6.42151 43.7303V43.7303C4.30573 40.937 5.63486 36.8855 8.98767 35.8668V35.8668C11.5271 35.0952 13.0438 32.4837 12.4429 29.8986V29.8986C11.6498 26.4867 14.5175 23.329 17.9942 23.7567V23.7567C20.6301 24.081 23.0842 22.3125 23.591 19.7054V19.7054C24.2602 16.2627 28.1608 14.5395 31.1687 16.3429V16.3429C33.449 17.7101 36.4078 17.0893 37.9351 14.913V14.913Z" fill="#D3D3D3"/>
</g>
<path fill-rule="evenodd" clip-rule="evenodd" d="M38.9036 4.87315C38.7776 5.23434 38.7091 5.62251 38.7091 6.02667V37.0267C38.7091 38.9597 40.2761 40.5267 42.2091 40.5267C44.1421 40.5267 45.7091 38.9597 45.7091 37.0267V6.02667C45.7091 5.73218 45.6727 5.44618 45.6042 5.17293C43.7653 3.38903 40.8619 3.28911 38.9036 4.87315Z" fill="#1E1E1E" style="mix-blend-mode:hard-light"/>
</svg>
